<svg xmlns="http://www.w3.org/2000/svg" viewBox="0 0 69.23 78.46"><defs><style>.cls-1{fill:#fff;}</style></defs><g id="Laag_2" data-name="Laag 2"><g id="Laag_1-2" data-name="Laag 1"><polygon class="cls-1" points="69.23 53.03 69.23 52.96 69.23 23.96 69.23 23.96 69.23 23.96 50.35 34.86 50.35 56.66 50.48 56.58 56.64 53.03 56.64 53.03 56.64 53.03 56.64 40.93 62.93 37.29 62.94 56.59 62.93 56.59 62.93 56.66 44.05 67.56 44.05 38.49 37.76 42.13 37.76 78.46 69.23 60.29 69.23 53.04 69.23 53.04 69.23 53.03 69.23 53.03"/><polygon class="cls-1" points="12.59 53.03 12.59 53.03 12.59 53.03 18.88 56.66 18.88 49.46 12.59 45.83 12.59 53.03"/><polygon class="cls-1" points="25.17 67.56 6.29 56.66 6.29 56.59 6.29 56.59 6.29 34.86 6.29 34.86 18.88 42.14 18.88 42.13 18.88 42.13 18.88 34.86 0 23.96 0 23.96 0 23.96 0 60.29 31.47 78.46 31.47 42.13 25.17 38.49 25.17 67.56"/><polygon class="cls-1" points="59.71 14.47 53.43 18.11 34.62 29.07 34.56 29.03 15.73 18.19 34.64 7.29 47.19 14.52 53.43 10.85 34.59 0 28.3 3.64 28.33 3.65 3.15 18.2 34.63 36.34 66.08 18.14 59.71 14.47"/><polygon class="cls-1" points="34.58 21.78 34.58 21.79 34.58 21.79 40.88 18.15 34.64 14.55 28.35 18.18 34.58 21.78"/></g></g></svg>