<?xml version="1.0" encoding="UTF-8" standalone="no"?>
<svg
   viewBox="0 0 371.24 78.46"
   version="1.1"
   id="svg9"
   sodipodi:docname="Logo_DL-white.svg"
   inkscape:version="1.3.2 (091e20e, 2023-11-25)"
   xmlns:inkscape="http://www.inkscape.org/namespaces/inkscape"
   xmlns:sodipodi="http://sodipodi.sourceforge.net/DTD/sodipodi-0.dtd"
   xmlns="http://www.w3.org/2000/svg"
   xmlns:svg="http://www.w3.org/2000/svg">
  <sodipodi:namedview
     id="namedview9"
     pagecolor="#ffffff"
     bordercolor="#000000"
     borderopacity="0.25"
     inkscape:showpageshadow="2"
     inkscape:pageopacity="0.0"
     inkscape:pagecheckerboard="0"
     inkscape:deskcolor="#d1d1d1"
     inkscape:zoom="1.12865"
     inkscape:cx="185.62"
     inkscape:cy="38.984629"
     inkscape:window-width="1392"
     inkscape:window-height="1027"
     inkscape:window-x="596"
     inkscape:window-y="25"
     inkscape:window-maximized="0"
     inkscape:current-layer="svg9" />
  <defs
     id="defs1">
    <style
       id="style1">.cls-1{fill:#303031;}</style>
  </defs>
  <g
     id="Laag_2"
     data-name="Laag 2"
     style="fill:#ffffff">
    <g
       id="Laag_1-2"
       data-name="Laag 1"
       style="fill:#ffffff">
      <path
         class="cls-1"
         d="M126.37,28.51a18.29,18.29,0,0,0-6.09-4.05A18.65,18.65,0,0,0,113.1,23h-15v7.5h15a11.23,11.23,0,0,1,11.25,11.25A11.25,11.25,0,0,1,113.1,53h-7.5V38H98.1v22.5h15a18.66,18.66,0,0,0,7.18-1.43A18.58,18.58,0,0,0,130.43,49a18.81,18.81,0,0,0-4.06-20.45Z"
         id="path1"
         style="fill:#ffffff" />
      <polygon
         class="cls-1"
         points="132.55 60.53 140.52 60.53 149.43 40.38 158.33 60.53 166.3 60.53 149.43 21.16 132.55 60.53"
         id="polygon1"
         style="fill:#ffffff" />
      <polygon
         class="cls-1"
         points="171.37 60.53 197.62 60.53 197.62 53.03 178.87 53.03 178.87 45.53 197.62 45.53 197.62 38.03 171.37 38.03 171.37 60.53"
         id="polygon2"
         style="fill:#ffffff" />
      <rect
         class="cls-1"
         x="171.37"
         y="23.04"
         width="26.25"
         height="7.5"
         id="rect2"
         style="fill:#ffffff" />
      <path
         class="cls-1"
         d="M235.38,28.51A18.85,18.85,0,0,0,222.11,23h-15v7.5h15a11.25,11.25,0,0,1,11.25,11.25A11.27,11.27,0,0,1,222.11,53h-7.5V38h-7.5v22.5h15a18.79,18.79,0,0,0,13.27-32Z"
         id="path2"
         style="fill:#ffffff" />
      <polygon
         class="cls-1"
         points="241.56 60.53 249.53 60.53 258.43 40.38 267.34 60.53 275.31 60.53 258.43 21.16 241.56 60.53"
         id="polygon3"
         style="fill:#ffffff" />
      <polygon
         class="cls-1"
         points="287.87 23.04 280.37 23.04 280.37 60.53 306.62 60.53 306.62 53.03 287.87 53.03 287.87 23.04"
         id="polygon4"
         style="fill:#ffffff" />
      <path
         class="cls-1"
         d="M332.37,45.54a7.5,7.5,0,0,1-15,0V23h-7.5v22.5a15,15,0,0,0,20.74,13.85,14.66,14.66,0,0,0,4.86-3.25,15.06,15.06,0,0,0,3.26-4.86,14.88,14.88,0,0,0,1.14-5.74V23h-7.5Z"
         id="path4"
         style="fill:#ffffff" />
      <path
         class="cls-1"
         d="M370.22,45.62A12,12,0,0,0,367,41.81a23,23,0,0,0-5.06-3c-.9-.41-1.71-.77-2.44-1.06A27.43,27.43,0,0,1,355.91,36a2.65,2.65,0,0,1-1.45-2.43v-.06a2.82,2.82,0,0,1,1.4-2.41,5.62,5.62,0,0,1,3.11-.87h.23a9.63,9.63,0,0,1,3.6.88,8.24,8.24,0,0,1,2.2,1.14l3.4-6.3a10,10,0,0,0-1.87-1.37,14.59,14.59,0,0,0-7.21-2h-.44a15,15,0,0,0-6.07,1.23A11.84,11.84,0,0,0,348,27.53a9.06,9.06,0,0,0-1.9,5.44v.41a8.88,8.88,0,0,0,1,4.27,11.68,11.68,0,0,0,3,3.46,20.09,20.09,0,0,0,4.3,2.55c1.31.61,2.57,1.24,3.78,1.9a21,21,0,0,1,3.15,2.1,3.27,3.27,0,0,1,1.33,2.56v.12a2.64,2.64,0,0,1-1.76,2.52,8.84,8.84,0,0,1-3.43.7h-.26a11.51,11.51,0,0,1-5-1.29,7.9,7.9,0,0,1-2.46-1.64l-3.61,6.71a11.14,11.14,0,0,0,2.55,1.7A18.82,18.82,0,0,0,357,61.12h.62a16.82,16.82,0,0,0,6.36-1.2,12.6,12.6,0,0,0,5.17-3.72,9.52,9.52,0,0,0,2.09-5.86v-.26A9.66,9.66,0,0,0,370.22,45.62Z"
         id="path5"
         style="fill:#ffffff" />
      <polygon
         class="cls-1"
         points="69.23 53.03 69.23 52.96 69.23 23.96 69.23 23.96 69.23 23.96 50.35 34.86 50.35 56.66 50.48 56.58 56.64 53.03 56.64 53.03 56.64 53.03 56.64 40.93 62.93 37.29 62.94 56.59 62.93 56.59 62.93 56.66 44.05 67.56 44.05 38.49 37.76 42.13 37.76 78.46 69.23 60.29 69.23 53.04 69.23 53.04 69.23 53.03 69.23 53.03"
         id="polygon5"
         style="fill:#ffffff" />
      <polygon
         class="cls-1"
         points="12.59 53.03 12.59 53.03 12.59 53.03 18.88 56.66 18.88 49.46 12.59 45.83 12.59 53.03"
         id="polygon6"
         style="fill:#ffffff" />
      <polygon
         class="cls-1"
         points="25.17 67.56 6.29 56.66 6.29 56.59 6.29 56.59 6.29 34.86 6.29 34.86 18.88 42.14 18.88 42.13 18.88 42.13 18.88 34.86 0 23.96 0 23.96 0 23.96 0 60.29 31.47 78.46 31.47 42.13 25.17 38.49 25.17 67.56"
         id="polygon7"
         style="fill:#ffffff" />
      <polygon
         class="cls-1"
         points="59.71 14.47 53.43 18.11 34.62 29.07 34.56 29.03 15.73 18.19 34.64 7.29 47.19 14.52 53.43 10.85 34.59 0 28.3 3.64 28.33 3.65 3.15 18.2 34.63 36.34 66.08 18.14 59.71 14.47"
         id="polygon8"
         style="fill:#ffffff" />
      <polygon
         class="cls-1"
         points="34.58 21.78 34.58 21.79 34.58 21.79 40.88 18.15 34.64 14.55 28.35 18.18 34.58 21.78"
         id="polygon9"
         style="fill:#ffffff" />
    </g>
  </g>
</svg>
