<?xml version="1.0" encoding="UTF-8" standalone="no"?>
<svg
   viewBox="0 0 130.21 147.58"
   version="1.1"
   id="svg6"
   sodipodi:docname="Resin_Hexagon_Orange_Fill.svg"
   inkscape:export-filename="Resin_Hexagon_Orange_Fill.png"
   inkscape:export-xdpi="737.27051"
   inkscape:export-ydpi="737.27051"
   inkscape:version="1.3.2 (091e20e, 2023-11-25)"
   xmlns:inkscape="http://www.inkscape.org/namespaces/inkscape"
   xmlns:sodipodi="http://sodipodi.sourceforge.net/DTD/sodipodi-0.dtd"
   xmlns="http://www.w3.org/2000/svg"
   xmlns:svg="http://www.w3.org/2000/svg">
  <sodipodi:namedview
     id="namedview6"
     pagecolor="#ffffff"
     bordercolor="#000000"
     borderopacity="0.25"
     inkscape:showpageshadow="2"
     inkscape:pageopacity="0.0"
     inkscape:pagecheckerboard="0"
     inkscape:deskcolor="#d1d1d1"
     inkscape:zoom="3.2178786"
     inkscape:cx="65.105003"
     inkscape:cy="73.651006"
     inkscape:window-width="1392"
     inkscape:window-height="1027"
     inkscape:window-x="528"
     inkscape:window-y="25"
     inkscape:window-maximized="0"
     inkscape:current-layer="svg6" />
  <defs
     id="defs1">
    <style
       id="style1">.cls-1{fill:#f07e19;}</style>
  </defs>
  <g
     id="Laag_2"
     data-name="Laag 2">
    <g
       id="Laag_1-2"
       data-name="Laag 1">
      <polygon
         class="cls-1"
         points="0 113.41 11.86 120.25 11.84 65.57 47.35 86.07 47.35 140.75 59.19 147.58 59.19 79.24 0 45.06 0 113.41"
         id="polygon1" />
      <polygon
         class="cls-1"
         points="23.68 127.08 35.51 133.91 35.51 93.03 23.68 86.19 23.68 127.08"
         id="polygon2" />
      <polygon
         class="cls-1"
         points="71.03 79.24 71.03 147.58 82.86 140.75 82.86 86.07 118.38 65.57 118.36 120.25 130.21 113.41 130.21 45.06 71.03 79.24"
         id="polygon3" />
      <polygon
         class="cls-1"
         points="94.7 133.91 106.54 127.08 106.54 86.19 94.7 93.03 94.7 133.91"
         id="polygon4" />
      <polygon
         class="cls-1"
         points="65.1 0 53.25 6.84 100.62 34.17 65.11 54.68 17.75 27.34 5.92 34.17 65.1 68.34 124.29 34.17 65.1 0"
         id="polygon5" />
      <polygon
         class="cls-1"
         points="76.83 34.11 41.43 13.67 29.59 20.5 65 40.95 76.83 34.11"
         id="polygon6" />
    </g>
  </g>
</svg>
