<?xml version="1.0" standalone="no"?>
<!DOCTYPE svg PUBLIC "-//W3C//DTD SVG 20010904//EN"
 "http://www.w3.org/TR/2001/REC-SVG-20010904/DTD/svg10.dtd">
<svg version="1.0" xmlns="http://www.w3.org/2000/svg"
 width="256.000000pt" height="256.000000pt" viewBox="0 0 256.000000 256.000000"
 preserveAspectRatio="xMidYMid meet">
<metadata>
Created by potrace 1.14, written by Peter Selinger 2001-2017
</metadata>
<g transform="translate(0.000000,256.000000) scale(0.100000,-0.100000)"
fill="#000000" stroke="none">
<path d="M1197 2520 c-38 -22 -71 -40 -74 -40 -3 0 -16 -9 -29 -19 l-25 -20
23 -14 c25 -16 633 -371 731 -426 54 -31 57 -34 38 -45 -21 -12 -445 -259
-496 -289 -77 -45 -95 -49 -123 -30 -15 9 -30 16 -34 15 -5 -1 -8 3 -8 8 0 6
-6 10 -14 10 -7 0 -19 7 -26 15 -7 9 -15 13 -18 11 -3 -3 -17 3 -31 13 -14 10
-167 100 -339 200 l-313 181 -52 -28 c-95 -51 -159 -94 -150 -103 4 -4 19 -14
33 -21 14 -7 76 -43 138 -78 62 -36 137 -79 167 -95 30 -17 60 -36 67 -43 7
-7 15 -12 19 -12 4 0 63 -32 131 -72 67 -39 133 -76 145 -82 13 -6 23 -14 23
-18 0 -5 5 -8 10 -8 9 0 43 -18 130 -70 146 -86 173 -96 189 -73 3 5 49 33
101 62 131 74 146 83 217 125 34 20 66 36 72 36 6 0 11 3 11 8 0 4 26 20 58
37 31 16 64 35 72 41 8 6 40 24 70 40 30 16 59 33 65 37 5 5 81 49 168 99 128
73 156 93 145 103 -19 18 -987 577 -1006 581 -10 2 -48 -14 -85 -36z"/>
<path d="M761 2267 c-119 -70 -123 -56 34 -144 55 -32 102 -61 103 -65 2 -4 8
-8 13 -8 5 0 89 -46 186 -102 l176 -102 51 28 c28 16 75 44 105 63 50 32 53
36 35 46 -10 6 -104 60 -209 120 -104 60 -210 121 -235 135 -25 13 -49 28 -55
32 -5 4 -30 19 -55 32 l-46 25 -103 -60z"/>
<path d="M149 1758 c-4 -116 -1 -1149 4 -1161 3 -9 28 -28 54 -42 26 -14 66
-36 88 -50 22 -13 45 -24 52 -25 8 0 11 116 11 461 0 253 3 463 6 466 3 3 12
0 20 -6 8 -7 30 -20 48 -30 41 -22 79 -43 243 -139 72 -41 166 -96 210 -122
l80 -47 0 -472 1 -472 99 -59 c54 -32 102 -57 106 -55 3 3 6 270 6 595 l0 590
-124 73 c-68 39 -145 83 -171 97 -26 14 -53 31 -60 38 -7 6 -20 12 -28 12 -8
0 -14 5 -14 10 0 6 -4 10 -9 10 -8 0 -426 237 -573 325 -48 29 -48 29 -49 3z"/>
<path d="M2230 1683 c-91 -52 -183 -105 -205 -118 -65 -36 -103 -58 -232 -134
-67 -39 -126 -71 -131 -71 -6 0 -12 -4 -14 -8 -3 -7 -39 -29 -228 -135 -19
-10 -37 -23 -40 -27 -7 -12 -6 -1177 1 -1185 4 -3 51 21 105 53 l99 60 2 413
c1 228 2 441 3 475 l0 60 63 35 c34 20 167 97 296 172 129 75 235 137 237 137
2 0 4 -209 4 -465 0 -312 3 -465 10 -465 6 0 54 25 108 56 l97 55 -1 589 c0
324 -2 592 -5 594 -2 3 -79 -38 -169 -91z"/>
<path d="M559 1063 c-1 -4 -2 -165 -3 -356 -1 -377 -4 -353 53 -386 14 -7 45
-25 70 -38 25 -14 50 -29 55 -34 34 -31 36 -15 36 346 l0 355 -52 29 c-29 16
-58 33 -64 38 -26 20 -94 53 -95 46z"/>
<path d="M1883 1007 l-103 -61 1 -353 c0 -201 4 -353 9 -353 5 0 32 14 60 30
28 17 54 30 58 30 4 1 25 14 46 29 l40 28 0 348 c1 191 -1 351 -4 355 -3 4
-51 -19 -107 -53z"/>
</g>
</svg>
