<svg width="24" height="24" viewBox="0 0 24 24" fill="none" xmlns="http://www.w3.org/2000/svg">
<path d="M20.4087 5.59938C19.3898 4.58362 18.01 4.0124 16.571 4.01064C15.1319 4.00889 13.7507 4.57674 12.7294 5.59001L11.5033 6.72838L10.2762 5.58627C9.25513 4.56858 7.8714 3.99798 6.42941 4.00001C4.98742 4.00203 3.6053 4.5765 2.58708 5.59704C1.56887 6.61758 0.997984 8.0006 1.00001 9.44185C1.00203 10.8831 1.57679 12.2645 2.59786 13.2822L10.9736 21.7764C11.0434 21.8472 11.1266 21.9035 11.2183 21.9418C11.3101 21.9802 11.4085 22 11.508 22C11.6074 22 11.7059 21.9802 11.7976 21.9418C11.8893 21.9035 11.9725 21.8472 12.0423 21.7764L20.4087 13.2822C21.4276 12.2632 22 10.8815 22 9.44079C22 8.00011 21.4276 6.6184 20.4087 5.59938ZM19.3447 12.2291L11.5033 20.178L3.65714 12.2216C2.91875 11.4836 2.50392 10.4826 2.50392 9.43892C2.50392 8.39521 2.91875 7.39425 3.65714 6.65624C4.39553 5.91823 5.39701 5.50362 6.44125 5.50362C7.4855 5.50362 8.48697 5.91823 9.22536 6.65624L9.24411 6.67498L10.9924 8.30055C11.1312 8.42963 11.3137 8.50139 11.5033 8.50139C11.6928 8.50139 11.8754 8.42963 12.0142 8.30055L13.7624 6.67498L13.7812 6.65624C14.5201 5.91872 15.5218 5.50479 16.5661 5.50549C17.6103 5.50619 18.6115 5.92148 19.3494 6.65999C20.0873 7.3985 20.5015 8.39973 20.5008 9.44344C20.5001 10.4871 20.0846 11.4878 19.3457 12.2253L19.3447 12.2291Z" fill="#6C6D6E"/>
</svg>
