<svg width="26" height="22" viewBox="0 0 26 22" fill="none" xmlns="http://www.w3.org/2000/svg">
<path d="M22.5 18.5625H22.5625V18.5V15V14.9375H22.5H3.5H3.4375V15V18.5V18.5625H3.5H22.5ZM22.5 7.0625H22.5625V7V3.5V3.4375H22.5H3.5H3.4375V3.5V7V7.0625H3.5H22.5ZM3 12.0625H23C23.6465 12.0625 24.2665 12.3193 24.7236 12.7764C25.1807 13.2335 25.4375 13.8535 25.4375 14.5V19C25.4375 19.6465 25.1807 20.2665 24.7236 20.7236C24.2665 21.1807 23.6465 21.4375 23 21.4375H3C2.35353 21.4375 1.73355 21.1807 1.27643 20.7236C0.819307 20.2665 0.5625 19.6465 0.5625 19V14.5C0.5625 13.8535 0.819307 13.2335 1.27643 12.7764C1.73355 12.3193 2.35353 12.0625 3 12.0625ZM3 0.5625H23C23.6465 0.5625 24.2665 0.819307 24.7236 1.27643C25.1807 1.73355 25.4375 2.35353 25.4375 3V7.5C25.4375 8.14647 25.1807 8.76645 24.7236 9.22357C24.2665 9.68069 23.6465 9.9375 23 9.9375H3C2.35353 9.9375 1.73355 9.68069 1.27643 9.22357C0.819307 8.76645 0.5625 8.14647 0.5625 7.5V3C0.5625 2.35353 0.819307 1.73355 1.27643 1.27643C1.73355 0.819307 2.35353 0.5625 3 0.5625Z" fill="#F5F5F6" stroke="#F5F5F6" stroke-width="0.125"/>
</svg>
