<svg width="16" height="16" viewBox="0 0 16 16" fill="none" xmlns="http://www.w3.org/2000/svg">
<g clip-path="url(#clip0_1739_35070)">
<path d="M3.85645 2.4375H5.36895C5.62782 2.4375 5.8377 2.22763 5.8377 1.96875C5.8377 1.70987 5.62782 1.5 5.36895 1.5H3.85645C3.59757 1.5 3.3877 1.70987 3.3877 1.96875C3.3877 2.22763 3.59757 2.4375 3.85645 2.4375Z" fill="#303031"/>
<path d="M7.24365 2.4375H8.75615C9.01503 2.4375 9.2249 2.22763 9.2249 1.96875C9.2249 1.70987 9.01503 1.5 8.75615 1.5H7.24365C6.98478 1.5 6.7749 1.70987 6.7749 1.96875C6.7749 2.22763 6.98478 2.4375 7.24365 2.4375Z" fill="#303031"/>
<path d="M12.1438 1.5H10.6313C10.3725 1.5 10.1626 1.70987 10.1626 1.96875C10.1626 2.22763 10.3725 2.4375 10.6313 2.4375H12.1438C12.4027 2.4375 12.6126 2.22763 12.6126 1.96875C12.6126 1.70987 12.4027 1.5 12.1438 1.5Z" fill="#303031"/>
<path d="M14.0312 12.6125C14.2901 12.6125 14.5 12.4026 14.5 12.1438V10.6313C14.5 10.3724 14.2901 10.1625 14.0312 10.1625C13.7724 10.1625 13.5625 10.3724 13.5625 10.6313V12.1438C13.5625 12.4026 13.7724 12.6125 14.0312 12.6125Z" fill="#303031"/>
<path d="M14.0312 9.22499C14.2901 9.22499 14.5 9.01512 14.5 8.75624V7.24374C14.5 6.98487 14.2901 6.77499 14.0312 6.77499C13.7724 6.77499 13.5625 6.98487 13.5625 7.24374V8.75624C13.5625 9.01512 13.7724 9.22499 14.0312 9.22499Z" fill="#303031"/>
<path d="M14.0312 5.83751C14.2901 5.83751 14.5 5.62764 14.5 5.36876V3.85626C14.5 3.59739 14.2901 3.38751 14.0312 3.38751C13.7724 3.38751 13.5625 3.59739 13.5625 3.85626V5.36876C13.5625 5.62764 13.7724 5.83751 14.0312 5.83751Z" fill="#303031"/>
<path d="M1.96875 10.1625C1.70987 10.1625 1.5 10.3724 1.5 10.6313V12.1438C1.5 12.4026 1.70987 12.6125 1.96875 12.6125C2.22763 12.6125 2.4375 12.4026 2.4375 12.1438V10.6313C2.4375 10.3724 2.22763 10.1625 1.96875 10.1625Z" fill="#303031"/>
<path d="M1.96875 6.77499C1.70987 6.77499 1.5 6.98487 1.5 7.24374V8.75624C1.5 9.01512 1.70987 9.22499 1.96875 9.22499C2.22763 9.22499 2.4375 9.01512 2.4375 8.75624V7.24374C2.4375 6.98487 2.22763 6.77499 1.96875 6.77499Z" fill="#303031"/>
<path d="M1.96875 3.38751C1.70987 3.38751 1.5 3.59739 1.5 3.85626V5.36876C1.5 5.62764 1.70987 5.83751 1.96875 5.83751C2.22763 5.83751 2.4375 5.62764 2.4375 5.36876V3.85626C2.4375 3.59739 2.22763 3.38751 1.96875 3.38751Z" fill="#303031"/>
<path d="M12.1438 13.5625H10.6313C10.3725 13.5625 10.1626 13.7724 10.1626 14.0312C10.1626 14.2901 10.3725 14.5 10.6313 14.5H12.1438C12.4027 14.5 12.6126 14.2901 12.6126 14.0312C12.6126 13.7724 12.4027 13.5625 12.1438 13.5625Z" fill="#303031"/>
<path d="M8.75615 13.5625H7.24365C6.98478 13.5625 6.7749 13.7724 6.7749 14.0312C6.7749 14.2901 6.98478 14.5 7.24365 14.5H8.75615C9.01503 14.5 9.2249 14.2901 9.2249 14.0312C9.2249 13.7724 9.01503 13.5625 8.75615 13.5625Z" fill="#303031"/>
<path d="M5.36895 13.5625H3.85645C3.59757 13.5625 3.3877 13.7724 3.3877 14.0312C3.3877 14.2901 3.59757 14.5 3.85645 14.5H5.36895C5.62782 14.5 5.8377 14.2901 5.8377 14.0312C5.8377 13.7724 5.62782 13.5625 5.36895 13.5625Z" fill="#303031"/>
<path d="M14.0312 2.4375H15.5312C15.7901 2.4375 16 2.22762 16 1.96875C16 1.70987 15.7901 1.5 15.5312 1.5H14.5V0.46875C14.5 0.209875 14.2901 0 14.0312 0C13.7724 0 13.5625 0.209875 13.5625 0.46875V1.96875C13.5625 2.22762 13.7724 2.4375 14.0312 2.4375Z" fill="#303031"/>
<path d="M1.96875 0C1.70987 0 1.5 0.209875 1.5 0.46875V1.5H0.46875C0.209875 1.5 0 1.70987 0 1.96875C0 2.22762 0.209875 2.4375 0.46875 2.4375H1.96875C2.22762 2.4375 2.4375 2.22762 2.4375 1.96875V0.46875C2.4375 0.209875 2.22762 0 1.96875 0Z" fill="#303031"/>
<path d="M15.5312 13.5625H14.0312C13.7724 13.5625 13.5625 13.7724 13.5625 14.0312V15.5312C13.5625 15.7901 13.7724 16 14.0312 16C14.2901 16 14.5 15.7901 14.5 15.5312V14.5H15.5312C15.7901 14.5 16 14.2901 16 14.0312C16 13.7724 15.7901 13.5625 15.5312 13.5625Z" fill="#303031"/>
<path d="M1.96875 13.5625H0.46875C0.209875 13.5625 0 13.7724 0 14.0312C0 14.2901 0.209875 14.5 0.46875 14.5H1.5V15.5312C1.5 15.7901 1.70987 16 1.96875 16C2.22762 16 2.4375 15.7901 2.4375 15.5312V14.0312C2.4375 13.7724 2.22762 13.5625 1.96875 13.5625Z" fill="#303031"/>
<path d="M11.6348 7.64053C11.8534 7.77193 12.1441 7.70246 12.2775 7.47815C12.4102 7.25584 12.3375 6.96809 12.1152 6.83543L8.25712 4.53356C8.11212 4.44559 7.92066 4.44543 7.77559 4.53337L3.91722 6.83543C3.69491 6.96809 3.62222 7.25584 3.75484 7.47815C3.88828 7.70246 4.17894 7.77193 4.39756 7.64053L4.62903 7.50243V10.5956H4.125C3.86612 10.5956 3.65625 10.8055 3.65625 11.0643C3.65625 11.3232 3.86612 11.5331 4.125 11.5331H11.875C12.1339 11.5331 12.3438 11.3232 12.3438 11.0643C12.3438 10.8055 12.1339 10.5956 11.875 10.5956H11.4034V7.50243L11.6348 7.64053ZM7.51216 10.5956V8.43562H8.52025V10.5956L7.51216 10.5956ZM10.4659 10.5956H9.45778V7.96687C9.45778 7.70799 9.24791 7.49812 8.98903 7.49812H7.04344C6.78456 7.49812 6.57469 7.70799 6.57469 7.96687V10.5956H5.56656V6.94306L8.01622 5.4815L10.4659 6.94306V10.5956Z" fill="#303031"/>
</g>
<defs>
<clipPath id="clip0_1739_35070">
<rect width="16" height="16" fill="white"/>
</clipPath>
</defs>
</svg>
