<svg width="24" height="24" viewBox="0 0 24 24" fill="none" xmlns="http://www.w3.org/2000/svg">
<path d="M15.025 20.58L14.9137 20.6875H15.0684H18.75C19.0318 20.6875 19.302 20.7994 19.5013 20.9987C19.7006 21.198 19.8125 21.4682 19.8125 21.75C19.8125 22.0318 19.7006 22.302 19.5013 22.5013C19.302 22.7006 19.0318 22.8125 18.75 22.8125H5.25C4.96821 22.8125 4.69796 22.7006 4.4987 22.5013C4.29944 22.302 4.1875 22.0318 4.1875 21.75C4.1875 21.4682 4.29944 21.198 4.4987 20.9987C4.69796 20.7994 4.96821 20.6875 5.25 20.6875H8.92313H9.07847L8.96641 20.5799C6.61949 18.3266 3.4375 14.4105 3.4375 9.75C3.4375 7.47908 4.33962 5.30118 5.9454 3.6954C7.55118 2.08962 9.72908 1.1875 12 1.1875C14.2709 1.1875 16.4488 2.08962 18.0546 3.6954C19.6604 5.30118 20.5625 7.47908 20.5625 9.75C20.5625 12.7653 19.179 15.9576 16.5522 18.978L16.5522 18.9781C16.0305 19.5783 15.5097 20.1122 15.025 20.58ZM14.9815 17.5451L14.9817 17.5449C16.5498 15.7289 18.4375 12.8961 18.4375 9.75C18.4375 8.04267 17.7593 6.40527 16.552 5.198C15.3447 3.99073 13.7073 3.3125 12 3.3125C10.2927 3.3125 8.65527 3.99073 7.448 5.198C6.24073 6.40527 5.5625 8.04267 5.5625 9.75C5.5625 12.8961 7.4502 15.7289 9.01832 17.5449L9.01849 17.5451C9.91475 18.5746 10.8992 19.5239 11.9607 20.382L12 20.4138L12.0393 20.382C13.1008 19.5239 14.0853 18.5746 14.9815 17.5451ZM14.257 13.1278C13.5889 13.5742 12.8035 13.8125 12.0001 13.8125C10.923 13.8113 9.89036 13.3829 9.12875 12.6213C8.36713 11.8596 7.93872 10.827 7.9375 9.74993C7.93751 8.94647 8.17577 8.16105 8.62215 7.493C9.06855 6.82492 9.70302 6.30422 10.4453 5.99674C11.1877 5.68926 12.0045 5.60881 12.7926 5.76556C13.5806 5.92231 14.3045 6.30923 14.8726 6.87738C15.4408 7.44553 15.8277 8.1694 15.9844 8.95745C16.1412 9.74549 16.0607 10.5623 15.7533 11.3047C15.4458 12.047 14.9251 12.6815 14.257 13.1278ZM13.0764 8.13903C12.7578 7.92613 12.3832 7.8125 12 7.8125C11.4861 7.8125 10.9933 8.01663 10.63 8.37998C10.2666 8.74333 10.0625 9.23614 10.0625 9.75C10.0625 10.1332 10.1761 10.5078 10.389 10.8264C10.6019 11.145 10.9045 11.3934 11.2586 11.54C11.6126 11.6867 12.0021 11.725 12.378 11.6503C12.7538 11.5755 13.0991 11.391 13.37 11.12C13.641 10.8491 13.8255 10.5038 13.9003 10.128C13.975 9.75215 13.9367 9.36258 13.79 9.00855C13.6434 8.65452 13.395 8.35192 13.0764 8.13903Z" fill="#F5F5F6" stroke="#F5F5F6" stroke-width="0.125"/>
</svg>
