<svg width="16" height="18" viewBox="0 0 16 18" fill="none" xmlns="http://www.w3.org/2000/svg">
<path d="M13.3036 7.68544C13.594 9.96652 11.2823 10.4989 9.85569 10.4852C9.69317 10.4836 9.54069 10.563 9.43893 10.6897C9.2937 10.8706 9.09938 11.0603 8.94418 11.0603C8.75262 11.0603 8.57904 11.4058 8.48907 11.6503C8.47243 11.6955 8.51645 11.7378 8.56227 11.7229C10.7831 11.0023 11.6586 10.7551 12.0372 10.8252C12.3451 10.8822 12.921 11.913 13.1704 12.4212C12.5504 12.4568 12.3437 11.9011 12.2011 11.8013C12.0871 11.7215 12.0444 12.0863 12.0372 12.2787C11.9018 12.2074 11.7308 12.1077 11.7165 11.8013C11.7023 11.495 11.5455 11.5733 11.4243 11.5876C11.3032 11.6018 9.44306 12.2003 9.16512 12.2787C8.88717 12.3571 8.56646 12.4639 8.30277 12.6492C7.8609 12.8629 7.57583 12.7133 7.49743 12.3499C7.43472 12.0592 7.8419 11.1648 8.05333 10.754C7.79201 10.8513 7.24942 11.0489 7.1696 11.0603C7.09396 11.0711 6.15484 11.7951 5.62202 12.2124C5.5676 12.2551 5.5335 12.3174 5.51847 12.3849C5.42508 12.8042 5.15964 12.9312 4.71084 13.1622C4.34681 13.3495 3.09981 15.2558 2.414 16.3569C2.33122 16.4898 2.20858 16.5921 2.08632 16.69C1.68784 17.0087 1.29781 17.6667 1.13317 18C0.882303 17.2761 1.20919 16.6534 1.40399 16.4325C1.31847 16.3584 1.12129 16.4016 1.03339 16.4325C1.2757 15.5989 2.1238 15.5989 2.09529 15.5989C2.25208 15.4635 4.09081 12.8344 4.13357 12.7133C4.17572 12.5939 4.10707 12.0383 5.01306 11.7291C5.03907 11.7202 5.06472 11.7085 5.08776 11.6935C5.80014 11.2301 6.33393 10.4924 6.51393 10.1769C5.62895 10.116 4.62571 9.65691 4.02296 9.31583C3.79953 9.1894 3.56486 9.06802 3.30815 9.06526C2.57862 9.05742 1.87734 9.51105 1.58216 9.77785C1.45102 9.59546 1.59879 9.06537 1.68906 8.82312C1.36978 8.77752 0.900357 9.24111 0.705557 9.47861C0.494603 9.14801 0.679425 8.55712 0.798206 8.303C0.376297 8.3144 0.0902733 8.50725 0 8.60225C0.349215 6.00165 3.02038 6.75798 3.05029 6.79252C2.90775 6.64432 2.91963 6.45052 2.94338 6.37215C4.56118 6.4149 5.31662 6.14415 5.79412 5.86628C9.55709 3.76443 11.1784 5.05404 11.7771 5.37822C12.3758 5.70241 13.4626 5.83422 14.2145 5.53497C15.1125 5.12885 14.9773 4.08203 14.7953 3.6825C14.5958 3.24431 13.4697 2.63868 13.0706 1.87277C12.6715 1.10685 13.0193 0.175446 13.4816 0.0456264C13.9221 -0.0780643 14.2367 0.0658348 14.4782 0.283907C14.6391 0.429293 15.0911 0.533279 15.2799 0.600966C15.4688 0.668652 15.7824 0.757714 15.7646 0.811151C15.7468 0.864587 15.4444 0.857456 15.3975 0.857456C15.3013 0.857456 15.1873 0.871706 15.3013 0.925142C15.4244 0.975066 15.6053 1.04583 15.7086 1.09723C15.7313 1.1085 15.7273 1.13895 15.7028 1.14504C15.0579 1.30473 14.4824 0.956142 14.0541 1.37045C13.6123 1.79794 14.553 2.12569 15.0376 2.63868C15.5223 3.15167 16.0211 3.76442 15.622 5.1609C15.3205 6.21585 14.0802 7.11663 13.3989 7.49368C13.331 7.53125 13.2938 7.60848 13.3036 7.68544Z" fill="#1F2A37"/>
</svg>
