<svg width="14" height="14" viewBox="0 0 14 14" fill="none" xmlns="http://www.w3.org/2000/svg">
<path d="M9 0.5C8.21082 0.500708 7.433 0.688048 6.73003 1.04673C6.02707 1.4054 5.4189 1.92525 4.95518 2.56381C4.49146 3.20238 4.18534 3.94157 4.0618 4.72102C3.93827 5.50047 4.00083 6.29809 4.24438 7.04875L0.64625 10.6462C0.599833 10.6927 0.563026 10.7479 0.537932 10.8086C0.512838 10.8693 0.499949 10.9343 0.5 11V13.5C0.5 13.6326 0.552679 13.7598 0.646447 13.8536C0.740215 13.9473 0.867392 14 1 14H3.5C3.63261 14 3.75979 13.9473 3.85355 13.8536C3.94732 13.7598 4 13.6326 4 13.5V12.5H5C5.13261 12.5 5.25979 12.4473 5.35355 12.3536C5.44732 12.2598 5.5 12.1326 5.5 12V11H6.5C6.56568 11.0001 6.63073 10.9872 6.69142 10.9621C6.75212 10.937 6.80728 10.9002 6.85375 10.8538L7.45125 10.2556C8.13845 10.4787 8.86584 10.5503 9.58334 10.4653C10.3008 10.3803 10.9914 10.1408 11.6075 9.76338C12.2235 9.38591 12.7505 8.87941 13.152 8.27874C13.5536 7.67808 13.8201 6.99753 13.9334 6.28395C14.0467 5.57038 14.004 4.84072 13.8082 4.14524C13.6125 3.44975 13.2683 2.80495 12.7994 2.25524C12.3305 1.70553 11.7481 1.26397 11.0922 0.960956C10.4363 0.657945 9.72251 0.500683 9 0.5ZM9 9.5C8.49385 9.50085 7.99219 9.40519 7.52188 9.21813C7.42987 9.1782 7.32799 9.16686 7.22946 9.18558C7.13094 9.20431 7.04031 9.25223 6.96938 9.32312L6.29313 10H5C4.86739 10 4.74021 10.0527 4.64645 10.1464C4.55268 10.2402 4.5 10.3674 4.5 10.5V11.5H3.5C3.36739 11.5 3.24022 11.5527 3.14645 11.6464C3.05268 11.7402 3 11.8674 3 12V13H1.5V11.2069L5.17688 7.53063C5.24777 7.45969 5.29569 7.36907 5.31442 7.27054C5.33314 7.17201 5.3218 7.07013 5.28188 6.97813C4.96568 6.18303 4.91279 5.30749 5.13095 4.48011C5.34912 3.65273 5.82686 2.91712 6.49399 2.38132C7.16113 1.84551 7.9825 1.53776 8.83746 1.50325C9.69242 1.46875 10.5359 1.70932 11.2441 2.18963C11.9522 2.66993 12.4877 3.36466 12.7718 4.17177C13.0559 4.97888 13.0737 5.85583 12.8226 6.67382C12.5715 7.49181 12.0648 8.20772 11.3767 8.7164C10.6887 9.22509 9.85566 9.49973 9 9.5ZM11 4.25C11 4.39834 10.956 4.54334 10.8736 4.66668C10.7912 4.79001 10.6741 4.88614 10.537 4.94291C10.4 4.99968 10.2492 5.01453 10.1037 4.98559C9.9582 4.95665 9.82456 4.88522 9.71967 4.78033C9.61478 4.67544 9.54335 4.5418 9.51441 4.39632C9.48547 4.25083 9.50033 4.10003 9.55709 3.96299C9.61386 3.82594 9.70999 3.70881 9.83332 3.6264C9.95666 3.54399 10.1017 3.5 10.25 3.5C10.4489 3.5 10.6397 3.57902 10.7803 3.71967C10.921 3.86032 11 4.05109 11 4.25Z" fill="#6C6D6E"/>
</svg>
