<svg width="12" height="10" viewBox="0 0 12 10" fill="none" xmlns="http://www.w3.org/2000/svg">
<path d="M11.9348 5.3561C11.9996 5.18595 12.0166 4.99871 11.9835 4.81808C11.9504 4.63745 11.8687 4.47155 11.7487 4.34136L8.31995 0.617552C8.24088 0.528637 8.14629 0.457715 8.04171 0.408925C7.93713 0.360134 7.82465 0.334453 7.71083 0.333379C7.59701 0.332305 7.48414 0.355859 7.37879 0.402668C7.27344 0.449477 7.17774 0.518603 7.09725 0.606013C7.01677 0.693423 6.95312 0.797365 6.91002 0.911776C6.86692 1.02619 6.84523 1.14877 6.84622 1.27239C6.84721 1.396 6.87085 1.51816 6.91578 1.63174C6.9607 1.74532 7.02601 1.84804 7.10788 1.93392L9.07429 4.06952H0.857197C0.629854 4.06952 0.411823 4.16761 0.251067 4.34219C0.0903117 4.51678 0 4.75357 0 5.00048C0 5.24738 0.0903117 5.48417 0.251067 5.65876C0.411823 5.83335 0.629854 5.93143 0.857197 5.93143H9.07429L7.10874 8.0661C7.02686 8.15198 6.96156 8.2547 6.91664 8.36829C6.87171 8.48186 6.84806 8.60402 6.84707 8.72764C6.84609 8.85125 6.86777 8.97383 6.91088 9.08824C6.95398 9.20265 7.01763 9.3066 7.09811 9.39401C7.1786 9.48142 7.2743 9.55054 7.37965 9.59735C7.485 9.64416 7.59787 9.66772 7.71169 9.66664C7.82551 9.66557 7.93799 9.63989 8.04257 9.5911C8.14715 9.5423 8.24174 9.47139 8.32081 9.38247L11.7496 5.65866C11.829 5.57199 11.8919 5.46918 11.9348 5.3561Z" fill="white"/>
</svg>
