<svg width="14" height="15" viewBox="0 0 14 15" fill="none" xmlns="http://www.w3.org/2000/svg">
<path d="M7 4.50003C6.40666 4.50003 5.82664 4.67598 5.33329 5.00562C4.83994 5.33526 4.45543 5.8038 4.22836 6.35198C4.0013 6.90016 3.94189 7.50336 4.05765 8.0853C4.1734 8.66724 4.45912 9.20179 4.87868 9.62135C5.29824 10.0409 5.83279 10.3266 6.41473 10.4424C6.99667 10.5581 7.59987 10.4987 8.14805 10.2717C8.69623 10.0446 9.16477 9.66009 9.49441 9.16674C9.82405 8.67339 10 8.09337 10 7.50003C9.99918 6.70463 9.68284 5.94205 9.12041 5.37962C8.55798 4.81719 7.7954 4.50086 7 4.50003ZM7 9.50003C6.60444 9.50003 6.21776 9.38273 5.88886 9.16297C5.55996 8.9432 5.30362 8.63085 5.15224 8.2654C5.00087 7.89994 4.96126 7.49781 5.03843 7.10985C5.1156 6.72189 5.30608 6.36552 5.58579 6.08581C5.86549 5.80611 6.22186 5.61563 6.60982 5.53846C6.99778 5.46129 7.39992 5.50089 7.76537 5.65227C8.13082 5.80364 8.44318 6.05999 8.66294 6.38889C8.8827 6.71779 9 7.10447 9 7.50003C9 8.03046 8.78929 8.53917 8.41422 8.91424C8.03914 9.28931 7.53044 9.50003 7 9.50003ZM12.5 7.63503C12.5025 7.54503 12.5025 7.45503 12.5 7.36503L13.4325 6.20003C13.4814 6.13886 13.5152 6.06706 13.5313 5.99042C13.5474 5.91378 13.5452 5.83443 13.525 5.75878C13.3721 5.18415 13.1435 4.63243 12.845 4.11815C12.8059 4.05085 12.7517 3.9936 12.6866 3.95096C12.6215 3.90832 12.5473 3.88146 12.47 3.87253L10.9875 3.70753C10.9258 3.64253 10.8633 3.58003 10.8 3.52003L10.625 2.03378C10.616 1.95641 10.589 1.88222 10.5463 1.81711C10.5035 1.752 10.4462 1.69779 10.3788 1.65878C9.86427 1.36087 9.3126 1.13242 8.73813 0.979404C8.66242 0.959277 8.58305 0.957218 8.50641 0.973394C8.42976 0.989569 8.35799 1.02353 8.29688 1.07253L7.135 2.00003C7.045 2.00003 6.955 2.00003 6.865 2.00003L5.7 1.0694C5.63883 1.02051 5.56704 0.986665 5.49039 0.970598C5.41375 0.954531 5.33441 0.956691 5.25875 0.976903C4.68422 1.13005 4.13254 1.35871 3.61813 1.6569C3.55083 1.69598 3.49358 1.75023 3.45093 1.81533C3.40829 1.88044 3.38143 1.95459 3.3725 2.0319L3.2075 3.5169C3.1425 3.57899 3.08 3.64149 3.02 3.7044L1.53375 3.87503C1.45638 3.88403 1.38219 3.91098 1.31708 3.95373C1.25198 3.99649 1.19776 4.05386 1.15875 4.12128C0.860844 4.63576 0.632398 5.18743 0.479377 5.7619C0.45925 5.83761 0.457191 5.91698 0.473367 5.99362C0.489543 6.07027 0.5235 6.14204 0.572502 6.20315L1.5 7.36503C1.5 7.45503 1.5 7.54503 1.5 7.63503L0.569377 8.80003C0.520482 8.8612 0.486638 8.93299 0.470571 9.00964C0.454505 9.08628 0.456664 9.16562 0.476877 9.24128C0.629745 9.8159 0.85842 10.3676 1.15688 10.8819C1.19596 10.9492 1.25021 11.0065 1.31531 11.0491C1.38041 11.0917 1.45457 11.1186 1.53188 11.1275L3.01438 11.2925C3.07646 11.3575 3.13896 11.42 3.20188 11.48L3.375 12.9663C3.384 13.0436 3.41095 13.1178 3.45371 13.1829C3.49646 13.2481 3.55383 13.3023 3.62125 13.3413C4.13573 13.6392 4.6874 13.8676 5.26188 14.0207C5.33758 14.0408 5.41695 14.0428 5.4936 14.0267C5.57024 14.0105 5.64201 13.9765 5.70313 13.9275L6.865 13C6.955 13.0025 7.045 13.0025 7.135 13L8.3 13.9325C8.36117 13.9814 8.43297 14.0153 8.50961 14.0313C8.58625 14.0474 8.6656 14.0452 8.74125 14.025C9.31588 13.8722 9.8676 13.6435 10.3819 13.345C10.4492 13.306 10.5064 13.2517 10.5491 13.1866C10.5917 13.1215 10.6186 13.0473 10.6275 12.97L10.7925 11.4875C10.8575 11.4259 10.92 11.3634 10.98 11.3L12.4663 11.125C12.5436 11.116 12.6178 11.0891 12.6829 11.0463C12.748 11.0036 12.8022 10.9462 12.8413 10.8788C13.1392 10.3643 13.3676 9.81263 13.5206 9.23815C13.5408 9.16245 13.5428 9.08308 13.5266 9.00643C13.5105 8.92979 13.4765 8.85802 13.4275 8.7969L12.5 7.63503ZM11.4938 7.22878C11.5044 7.40946 11.5044 7.5906 11.4938 7.77128C11.4863 7.89498 11.5251 8.01703 11.6025 8.11378L12.4894 9.2219C12.3876 9.54532 12.2573 9.85905 12.1 10.1594L10.6875 10.3194C10.5645 10.3331 10.4509 10.3918 10.3688 10.4844C10.2484 10.6197 10.1203 10.7478 9.985 10.8682C9.89245 10.9503 9.83366 11.0639 9.82 11.1869L9.66313 12.5982C9.36281 12.7555 9.04907 12.8858 8.72563 12.9875L7.61688 12.1007C7.52815 12.0298 7.41794 11.9912 7.30438 11.9913H7.27438C7.0937 12.0019 6.91255 12.0019 6.73188 11.9913C6.60818 11.9838 6.48612 12.0226 6.38938 12.1L5.27813 12.9875C4.95471 12.8858 4.64098 12.7555 4.34063 12.5982L4.18063 11.1875C4.16697 11.0645 4.10818 10.9509 4.01563 10.8688C3.88032 10.7485 3.75218 10.6203 3.63188 10.485C3.54971 10.3925 3.43614 10.3337 3.31313 10.32L1.90188 10.1625C1.7445 9.86222 1.61419 9.54847 1.5125 9.22503L2.39938 8.11628C2.47682 8.01953 2.51557 7.89748 2.50813 7.77378C2.4975 7.5931 2.4975 7.41196 2.50813 7.23128C2.51557 7.10758 2.47682 6.98552 2.39938 6.88878L1.5125 5.77815C1.61427 5.45474 1.74457 5.141 1.90188 4.84065L3.3125 4.68065C3.43551 4.667 3.54908 4.60821 3.63125 4.51565C3.75156 4.38035 3.87969 4.25221 4.015 4.1319C4.10792 4.04968 4.16696 3.93585 4.18063 3.81253L4.3375 2.4019C4.63782 2.24452 4.95156 2.11422 5.275 2.01253L6.38375 2.8994C6.4805 2.97684 6.60255 3.0156 6.72625 3.00815C6.90693 2.99753 7.08807 2.99753 7.26875 3.00815C7.39245 3.0156 7.51451 2.97684 7.61125 2.8994L8.72188 2.01253C9.04529 2.11429 9.35903 2.2446 9.65938 2.4019L9.81938 3.81253C9.83303 3.93554 9.89182 4.04911 9.98438 4.13128C10.1197 4.25159 10.2478 4.37972 10.3681 4.51503C10.4503 4.60758 10.5639 4.66637 10.6869 4.68003L12.0981 4.8369C12.2555 5.13722 12.3858 5.45096 12.4875 5.7744L11.6006 6.88315C11.5224 6.98071 11.4836 7.10403 11.4919 7.22878H11.4938Z" fill="#6C6D6E"/>
</svg>
