<svg width="21" height="21" viewBox="0 0 21 21" fill="none" xmlns="http://www.w3.org/2000/svg">
<path d="M11.5672 10.9422L8.44219 14.0672C8.38412 14.1253 8.31518 14.1713 8.23931 14.2027C8.16344 14.2342 8.08212 14.2503 8 14.2503C7.91788 14.2503 7.83656 14.2342 7.76069 14.2027C7.68482 14.1713 7.61588 14.1253 7.55781 14.0672C7.49974 14.0091 7.45368 13.9402 7.42225 13.8643C7.39083 13.7884 7.37465 13.7071 7.37465 13.625C7.37465 13.5429 7.39083 13.4616 7.42225 13.3857C7.45368 13.3098 7.49974 13.2409 7.55781 13.1828L9.61641 11.125H2.375C2.20924 11.125 2.05027 11.0592 1.93306 10.9419C1.81585 10.8247 1.75 10.6658 1.75 10.5C1.75 10.3342 1.81585 10.1753 1.93306 10.0581C2.05027 9.94085 2.20924 9.875 2.375 9.875H9.61641L7.55781 7.81719C7.44054 7.69991 7.37465 7.54085 7.37465 7.375C7.37465 7.20915 7.44054 7.05009 7.55781 6.93281C7.67509 6.81554 7.83415 6.74965 8 6.74965C8.16585 6.74965 8.32491 6.81554 8.44219 6.93281L11.5672 10.0578C11.6253 10.1159 11.6714 10.1848 11.7029 10.2607C11.7343 10.3365 11.7505 10.4179 11.7505 10.5C11.7505 10.5821 11.7343 10.6635 11.7029 10.7393C11.6714 10.8152 11.6253 10.8841 11.5672 10.9422ZM15.5 3H11.125C10.9592 3 10.8003 3.06585 10.6831 3.18306C10.5658 3.30027 10.5 3.45924 10.5 3.625C10.5 3.79076 10.5658 3.94973 10.6831 4.06694C10.8003 4.18415 10.9592 4.25 11.125 4.25H15.5V16.75H11.125C10.9592 16.75 10.8003 16.8158 10.6831 16.9331C10.5658 17.0503 10.5 17.2092 10.5 17.375C10.5 17.5408 10.5658 17.6997 10.6831 17.8169C10.8003 17.9342 10.9592 18 11.125 18H15.5C15.8315 18 16.1495 17.8683 16.3839 17.6339C16.6183 17.3995 16.75 17.0815 16.75 16.75V4.25C16.75 3.91848 16.6183 3.60054 16.3839 3.36612C16.1495 3.1317 15.8315 3 15.5 3Z" fill="white"/>
</svg>
