<svg width="16" height="17" viewBox="0 0 16 17" fill="none" xmlns="http://www.w3.org/2000/svg">
<path d="M7.5 14C7.5 14.1326 7.44732 14.2598 7.35355 14.3536C7.25979 14.4473 7.13261 14.5 7 14.5H3C2.86739 14.5 2.74021 14.4473 2.64645 14.3536C2.55268 14.2598 2.5 14.1326 2.5 14V3C2.5 2.86739 2.55268 2.74021 2.64645 2.64645C2.74021 2.55268 2.86739 2.5 3 2.5H7C7.13261 2.5 7.25979 2.55268 7.35355 2.64645C7.44732 2.74021 7.5 2.86739 7.5 3C7.5 3.13261 7.44732 3.25979 7.35355 3.35355C7.25979 3.44732 7.13261 3.5 7 3.5H3.5V13.5H7C7.13261 13.5 7.25979 13.5527 7.35355 13.6464C7.44732 13.7402 7.5 13.8674 7.5 14ZM14.3538 8.14625L11.8538 5.64625C11.7599 5.55243 11.6327 5.49972 11.5 5.49972C11.3673 5.49972 11.2401 5.55243 11.1462 5.64625C11.0524 5.74007 10.9997 5.86732 10.9997 6C10.9997 6.13268 11.0524 6.25993 11.1462 6.35375L12.7931 8H7C6.86739 8 6.74021 8.05268 6.64645 8.14645C6.55268 8.24021 6.5 8.36739 6.5 8.5C6.5 8.63261 6.55268 8.75979 6.64645 8.85355C6.74021 8.94732 6.86739 9 7 9H12.7931L11.1462 10.6462C11.0524 10.7401 10.9997 10.8673 10.9997 11C10.9997 11.1327 11.0524 11.2599 11.1462 11.3538C11.2401 11.4476 11.3673 11.5003 11.5 11.5003C11.6327 11.5003 11.7599 11.4476 11.8538 11.3538L14.3538 8.85375C14.4002 8.80731 14.4371 8.75217 14.4623 8.69147C14.4874 8.63077 14.5004 8.56571 14.5004 8.5C14.5004 8.43429 14.4874 8.36923 14.4623 8.30853C14.4371 8.24783 14.4002 8.19269 14.3538 8.14625Z" fill="#E02424"/>
</svg>
