<svg width="20" height="20" viewBox="0 0 20 20" fill="none" xmlns="http://www.w3.org/2000/svg">
<path d="M17.7256 8.97273V3.4118C17.7256 2.28101 16.8057 1.36105 15.6749 1.36105H4.32504C3.19426 1.36105 2.27437 2.28101 2.27437 3.4118V8.97273C0.971406 9.28617 0 10.4607 0 11.8584V16.0062C0 16.3353 0.266758 16.602 0.59582 16.602H2.27434V18.0431C2.27434 18.3721 2.54109 18.6389 2.87016 18.6389C3.19922 18.6389 3.46598 18.3721 3.46598 18.0431V16.602H16.5339V18.0431C16.5339 18.3721 16.8007 18.6389 17.1298 18.6389C17.4588 18.6389 17.7256 18.3721 17.7256 18.0431V16.602H19.4041C19.7332 16.602 19.9999 16.3353 19.9999 16.0062V11.8584C20 10.4607 19.0286 9.28617 17.7256 8.97273ZM3.46602 3.4118C3.46602 2.93812 3.85141 2.55273 4.32504 2.55273H15.6749C16.1486 2.55273 16.534 2.93812 16.534 3.4118V8.89H14.565V7.95C14.565 6.39258 13.298 5.12555 11.7406 5.12555H8.25949C6.70207 5.12555 5.43504 6.39262 5.43504 7.95V8.88996H3.46602V3.4118ZM13.3734 7.95V8.88996H6.6266V7.95C6.6266 7.04965 7.35906 6.31719 8.25941 6.31719H11.7405C12.6409 6.31715 13.3734 7.04969 13.3734 7.95ZM1.19164 15.4104V11.8584C1.19164 10.8787 1.98871 10.0816 2.96844 10.0816H17.0315C18.0112 10.0816 18.8083 10.8787 18.8083 11.8584V15.4104H1.19164Z" fill="#303031"/>
</svg>
