<svg width="24" height="24" viewBox="0 0 24 24" fill="none" xmlns="http://www.w3.org/2000/svg">
<path d="M4.89923 6.97925L4.78654 6.63467H4.424H3C2.86305 6.63467 2.73437 6.58161 2.64159 6.49132C2.54927 6.40149 2.5 6.2826 2.5 6.16161C2.5 6.04061 2.54927 5.92173 2.64159 5.83189C2.73437 5.74161 2.86305 5.68854 3 5.68854H4.424H4.78654L4.89923 5.34396C5.07317 4.81211 5.41731 4.34537 5.88459 4.0129C6.35206 3.6803 6.91782 3.5 7.5 3.5C8.08218 3.5 8.64794 3.6803 9.11541 4.0129C9.58269 4.34537 9.92683 4.81211 10.1008 5.34396L10.2135 5.68854H10.576H21C21.1369 5.68854 21.2656 5.74161 21.3584 5.83189C21.4507 5.92173 21.5 6.04061 21.5 6.16161C21.5 6.2826 21.4507 6.40149 21.3584 6.49132C21.2656 6.58161 21.1369 6.63467 21 6.63467H10.576H10.2135L10.1008 6.97925C9.92683 7.5111 9.58269 7.97785 9.11541 8.31031C8.64794 8.64291 8.08218 8.82321 7.5 8.82321C6.91782 8.82321 6.35206 8.64291 5.88459 8.31031C5.41731 7.97785 5.07317 7.5111 4.89923 6.97925ZM7.5 4.44527L7.49922 4.44527C7.03986 4.44599 6.59687 4.62375 6.26801 4.94375C5.93869 5.2642 5.75075 5.70156 5.75 6.16079V6.16161C5.75 6.50415 5.85446 6.83784 6.04848 7.1204C6.24239 7.40278 6.51654 7.62085 6.83473 7.7491C7.15281 7.8773 7.50206 7.91065 7.83888 7.84546C8.17575 7.78025 8.487 7.61899 8.73258 7.38003C8.9783 7.14092 9.14725 6.83461 9.21585 6.49904C9.28447 6.16337 9.24912 5.8156 9.1149 5.5003C8.98075 5.18516 8.75454 4.91803 8.46701 4.73108L8.21021 5.12604L8.46701 4.73108C8.17962 4.54422 7.84313 4.44527 7.5 4.44527ZM10.2135 17.3653H10.576H21C21.1369 17.3653 21.2656 17.4184 21.3584 17.5087C21.4507 17.5985 21.5 17.7174 21.5 17.8384C21.5 17.9594 21.4507 18.0783 21.3584 18.1681C21.2656 18.2584 21.1369 18.3115 21 18.3115H10.576H10.2135L10.1008 18.656C9.92683 19.1879 9.58269 19.6546 9.11541 19.9871L9.40528 20.3945L9.11541 19.9871C8.64794 20.3197 8.08218 20.5 7.5 20.5C6.91782 20.5 6.35206 20.3197 5.88459 19.9871L5.59472 20.3945L5.88459 19.9871C5.41731 19.6546 5.07317 19.1879 4.89923 18.656L4.78654 18.3115H4.424H3C2.86305 18.3115 2.73437 18.2584 2.64159 18.1681L2.29289 18.5265L2.64159 18.1681C2.54927 18.0783 2.5 17.9594 2.5 17.8384C2.5 17.7174 2.54927 17.5985 2.64159 17.5087L2.29324 17.1507L2.64159 17.5087C2.73437 17.4184 2.86305 17.3653 3 17.3653H4.424H4.78654L4.89923 17.0207C5.07317 16.4889 5.41731 16.0222 5.88459 15.6897C6.35206 15.3571 6.91782 15.1768 7.5 15.1768C8.08218 15.1768 8.64794 15.3571 9.11541 15.6897C9.58269 16.0222 9.92683 16.4889 10.1008 17.0207L10.2135 17.3653ZM9.25 17.8392V17.8384C9.25 17.4958 9.14554 17.1622 8.95152 16.8796C8.75761 16.5972 8.48346 16.3791 8.16527 16.2509C7.84719 16.1227 7.49793 16.0894 7.16112 16.1545C6.82425 16.2197 6.513 16.381 6.26742 16.62C6.0217 16.8591 5.85274 17.1654 5.78415 17.501C5.71553 17.8366 5.75088 18.1844 5.8851 18.4997C6.01925 18.8148 6.24546 19.082 6.53299 19.2689C6.82038 19.4558 7.15687 19.5547 7.5 19.5547H7.50078C7.96014 19.554 8.40313 19.3763 8.73199 19.0562C9.06131 18.7358 9.24925 18.2984 9.25 17.8392ZM19.1008 11.1824L19.2135 11.5269H19.576H21C21.1369 11.5269 21.2656 11.58 21.3584 11.6703C21.4507 11.7601 21.5 11.879 21.5 12C21.5 12.121 21.4507 12.2399 21.3584 12.3297C21.2656 12.42 21.1369 12.4731 21 12.4731H19.576H19.2135L19.1008 12.8176C18.9268 13.3495 18.5827 13.8162 18.1154 14.1487C17.6479 14.4813 17.0822 14.6616 16.5 14.6616C15.9178 14.6616 15.3521 14.4813 14.8846 14.1487C14.4173 13.8162 14.0732 13.3495 13.8992 12.8176L13.7865 12.4731H13.424H3C2.86305 12.4731 2.73437 12.42 2.64159 12.3297L2.29289 12.6881L2.64159 12.3297C2.54927 12.2399 2.5 12.121 2.5 12C2.5 11.879 2.54927 11.7601 2.64159 11.6703L2.29324 11.3123L2.64159 11.6703C2.73437 11.58 2.86305 11.5269 3 11.5269H13.424H13.7865L13.8992 11.1824C14.0732 10.6505 14.4173 10.1838 14.8846 9.85129C15.3521 9.51869 15.9178 9.33839 16.5 9.33839C17.0822 9.33839 17.6479 9.51869 18.1154 9.85129C18.5827 10.1838 18.9268 10.6505 19.1008 11.1824ZM16.5 13.7163L16.5008 13.7163C16.9601 13.7156 17.4031 13.5379 17.732 13.2179C18.0613 12.8974 18.2492 12.46 18.25 12.0008V12C18.25 11.6575 18.1455 11.3238 17.9515 11.0412C17.7576 10.7588 17.4835 10.5408 17.1653 10.4125C16.8472 10.2843 16.4979 10.251 16.1611 10.3161C15.8243 10.3814 15.513 10.5426 15.2674 10.7816C15.0217 11.0207 14.8527 11.327 14.7841 11.6626C14.7155 11.9982 14.7509 12.346 14.8851 12.6613C15.0192 12.9764 15.2455 13.2436 15.533 13.4305C15.8204 13.6174 16.1569 13.7163 16.5 13.7163Z" fill="#F5F5F6" stroke="#F5F5F6"/>
</svg>
