<svg width="20" height="20" viewBox="0 0 20 20" fill="none" xmlns="http://www.w3.org/2000/svg">
<g clip-path="url(#clip0_4556_497)">
<path d="M2.31787 19.1016H14.8701V15.7683H20.0002V3.20129H2.31787V19.1016ZM3.48975 4.37317H18.8283V14.5964H13.6982V17.9297H3.48975V4.37317Z" fill="#303031"/>
<path d="M2.31787 0.859375H20.0002V2.03125H2.31787V0.859375Z" fill="#303031"/>
<path d="M0 3.20129H1.17188V19.1016H0V3.20129Z" fill="#303031"/>
<path d="M10.3145 8.33969L9.18704 10.2339L8.02921 8.33969H7.04395V11.8945H8.13586V10.3304L8.90781 11.5746H9.43591L10.2079 10.2745L10.2179 11.8945H11.3098L11.2996 8.33969H10.3145Z" fill="#303031"/>
<path d="M13.1634 9.41635C13.4934 9.12689 13.5696 8.94913 13.5696 8.74603C13.5696 8.33466 13.1939 8.07571 12.6353 8.07571C12.1122 8.07571 11.782 8.28888 11.6348 8.57834L12.2239 8.85773C12.2898 8.73581 12.4067 8.6647 12.5642 8.6647C12.7064 8.6647 12.7673 8.72574 12.7673 8.80692C12.7673 8.87299 12.7368 8.95416 12.5845 9.08112L11.777 9.77188V10.2339H13.6357V9.65515H12.884L13.1634 9.41635Z" fill="#303031"/>
</g>
<defs>
<clipPath id="clip0_4556_497">
<rect width="20" height="20" fill="white"/>
</clipPath>
</defs>
</svg>
